<svg xmlns="http://www.w3.org/2000/svg" width="59" height="59" viewBox="0 0 59 59" fill="none"><path d="M0 18.721C0 8.38167 8.38166 0 18.721 0H40.1163C50.4556 0 58.8373 8.38166 58.8373 18.721V40.1163C58.8373 50.4556 50.4556 58.8373 40.1163 58.8373H18.721C8.38167 58.8373 0 50.4556 0 40.1163V18.721Z" fill="#F5F3FF"></path><path d="M24.8193 34.6685C24.1193 35.2518 23.3902 35.5185 22.6318 35.4685C21.8735 35.4185 21.211 35.1601 20.6443 34.6935C20.0777 34.2268 19.6902 33.6143 19.4818 32.856C19.2735 32.0976 19.411 31.3185 19.8943 30.5185L21.7693 27.4185C21.3527 27.0518 21.0235 26.6101 20.7818 26.0935C20.5402 25.5768 20.4193 25.0185 20.4193 24.4185C20.4193 23.3185 20.811 22.3768 21.5943 21.5935C22.3777 20.8101 23.3193 20.4185 24.4193 20.4185C25.5193 20.4185 26.461 20.8101 27.2443 21.5935C28.0277 22.3768 28.4193 23.3185 28.4193 24.4185C28.4193 25.5185 28.0277 26.4601 27.2443 27.2435C26.461 28.0268 25.5193 28.4185 24.4193 28.4185C24.2693 28.4185 24.1193 28.4101 23.9693 28.3935C23.8193 28.3768 23.6777 28.3518 23.5443 28.3185L21.6193 31.5685C21.436 31.8685 21.3777 32.1643 21.4443 32.456C21.511 32.7476 21.6527 32.9851 21.8693 33.1685C22.086 33.3518 22.3443 33.456 22.6443 33.481C22.9443 33.506 23.236 33.4018 23.5193 33.1685L34.0193 24.1435C34.7193 23.5601 35.4527 23.2976 36.2193 23.356C36.986 23.4143 37.6527 23.6768 38.2193 24.1435C38.786 24.6101 39.1693 25.2226 39.3693 25.981C39.5693 26.7393 39.4277 27.5185 38.9443 28.3185L37.0693 31.4185C37.486 31.7851 37.8152 32.2268 38.0568 32.7435C38.2985 33.2601 38.4193 33.8185 38.4193 34.4185C38.4193 35.5185 38.0277 36.4601 37.2443 37.2435C36.461 38.0268 35.5193 38.4185 34.4193 38.4185C33.3193 38.4185 32.3777 38.0268 31.5943 37.2435C30.811 36.4601 30.4193 35.5185 30.4193 34.4185C30.4193 33.3185 30.811 32.3768 31.5943 31.5935C32.3777 30.8101 33.3193 30.4185 34.4193 30.4185C34.5693 30.4185 34.7152 30.4268 34.8568 30.4435C34.9985 30.4601 35.136 30.4851 35.2693 30.5185L37.2193 27.2685C37.4027 26.9685 37.461 26.6726 37.3943 26.381C37.3277 26.0893 37.186 25.8518 36.9693 25.6685C36.7527 25.4851 36.4943 25.381 36.1943 25.356C35.8943 25.331 35.6027 25.4351 35.3193 25.6685L24.8193 34.6685ZM25.8318 25.831C26.2235 25.4393 26.4193 24.9685 26.4193 24.4185C26.4193 23.8685 26.2235 23.3976 25.8318 23.006C25.4402 22.6143 24.9693 22.4185 24.4193 22.4185C23.8693 22.4185 23.3985 22.6143 23.0068 23.006C22.6152 23.3976 22.4193 23.8685 22.4193 24.4185C22.4193 24.9685 22.6152 25.4393 23.0068 25.831C23.3985 26.2226 23.8693 26.4185 24.4193 26.4185C24.9693 26.4185 25.4402 26.2226 25.8318 25.831ZM35.8318 35.831C36.2235 35.4393 36.4193 34.9685 36.4193 34.4185C36.4193 33.8685 36.2235 33.3976 35.8318 33.006C35.4402 32.6143 34.9693 32.4185 34.4193 32.4185C33.8693 32.4185 33.3985 32.6143 33.0068 33.006C32.6152 33.3976 32.4193 33.8685 32.4193 34.4185C32.4193 34.9685 32.6152 35.4393 33.0068 35.831C33.3985 36.2226 33.8693 36.4185 34.4193 36.4185C34.9693 36.4185 35.4402 36.2226 35.8318 35.831Z" fill="#9900FF"></path></svg>