<svg xmlns="http://www.w3.org/2000/svg" width="59" height="59" viewBox="0 0 59 59" fill="none"><path d="M0 18.721C0 8.38167 8.38166 0 18.721 0H40.1163C50.4556 0 58.8373 8.38166 58.8373 18.721V40.1163C58.8373 50.4556 50.4556 58.8373 40.1163 58.8373H18.721C8.38167 58.8373 0 50.4556 0 40.1163V18.721Z" fill="#FEF3C7"></path><path d="M22.4189 39.4185C21.8689 39.4185 21.3981 39.2226 21.0064 38.831C20.6148 38.4393 20.4189 37.9685 20.4189 37.4185V23.4185C20.4189 22.8685 20.6148 22.3976 21.0064 22.006C21.3981 21.6143 21.8689 21.4185 22.4189 21.4185H23.4189V19.4185H25.4189V21.4185H33.4189V19.4185H35.4189V21.4185H36.4189C36.9689 21.4185 37.4398 21.6143 37.8314 22.006C38.2231 22.3976 38.4189 22.8685 38.4189 23.4185V29.7935L36.4189 31.7935V27.4185H22.4189V37.4185H28.6189L30.6189 39.4185H22.4189ZM22.4189 25.4185H36.4189V23.4185H22.4189V25.4185ZM33.9689 39.9185L30.4189 36.3685L31.8189 34.9685L33.9439 37.0935L38.1939 32.8435L39.5939 34.2685L33.9689 39.9185Z" fill="#E1B123"></path></svg>