<svg xmlns="http://www.w3.org/2000/svg" width="38" height="38" viewBox="0 0 38 38" fill="none"><circle cx="19" cy="19" r="19" fill="white"></circle><g clip-path="url(#clip0_15_75)"><path d="M16.001 19C16.001 17.3432 17.3437 15.9998 19.0005 15.9998C20.6573 15.9998 22.0007 17.3432 22.0007 19C22.0007 20.6568 20.6573 22.0002 19.0005 22.0002C17.3437 22.0002 16.001 20.6568 16.001 19ZM14.3791 19C14.3791 21.5524 16.4481 23.6214 19.0005 23.6214C21.5529 23.6214 23.6219 21.5524 23.6219 19C23.6219 16.4476 21.5529 14.3786 19.0005 14.3786C16.4481 14.3786 14.3791 16.4476 14.3791 19ZM22.7248 14.1954C22.7247 14.409 22.788 14.6178 22.9066 14.7955C23.0252 14.9731 23.1938 15.1116 23.3911 15.1934C23.5884 15.2752 23.8056 15.2967 24.0151 15.2551C24.2246 15.2135 24.4171 15.1108 24.5682 14.9598C24.7193 14.8088 24.8222 14.6164 24.864 14.4069C24.9058 14.1974 24.8844 13.9803 24.8028 13.7829C24.7211 13.5855 24.5828 13.4168 24.4052 13.2981C24.2276 13.1793 24.0189 13.1159 23.8053 13.1158H23.8048C23.5185 13.1159 23.244 13.2297 23.0415 13.4321C22.839 13.6345 22.7251 13.909 22.7248 14.1954ZM15.3645 26.3258C14.487 26.2858 14.0101 26.1397 13.6932 26.0162C13.273 25.8526 12.9732 25.6578 12.6579 25.343C12.3427 25.0282 12.1476 24.7287 11.9847 24.3085C11.8612 23.9917 11.715 23.5146 11.6751 22.6372C11.6315 21.6885 11.6228 21.4035 11.6228 19.0001C11.6228 16.5966 11.6322 16.3125 11.6751 15.363C11.7151 14.4855 11.8623 14.0094 11.9847 13.6917C12.1483 13.2715 12.3432 12.9717 12.6579 12.6564C12.9727 12.3412 13.2722 12.1461 13.6932 11.9832C14.01 11.8597 14.487 11.7135 15.3645 11.6736C16.3132 11.63 16.5981 11.6213 19.0005 11.6213C21.4028 11.6213 21.6881 11.6307 22.6376 11.6736C23.515 11.7136 23.9912 11.8608 24.3089 11.9832C24.7291 12.1461 25.0289 12.3417 25.3441 12.6564C25.6593 12.9712 25.8537 13.2715 26.0173 13.6917C26.1409 14.0085 26.287 14.4855 26.3269 15.363C26.3706 16.3125 26.3793 16.5966 26.3793 19.0001C26.3793 21.4035 26.3706 21.6877 26.3269 22.6372C26.287 23.5146 26.1401 23.9915 26.0173 24.3085C25.8537 24.7287 25.6589 25.0285 25.3441 25.343C25.0293 25.6575 24.7291 25.8526 24.3089 26.0162C23.9921 26.1397 23.515 26.2859 22.6376 26.3258C21.6889 26.3694 21.4039 26.3781 19.0005 26.3781C16.5971 26.3781 16.3129 26.3694 15.3645 26.3258ZM15.29 10.0545C14.3319 10.0981 13.6772 10.2501 13.1054 10.4725C12.5133 10.7023 12.012 11.0105 11.5111 11.5106C11.0102 12.0107 10.7028 12.5128 10.473 13.1049C10.2505 13.677 10.0986 14.3314 10.055 15.2895C10.0106 16.2491 10.0005 16.5559 10.0005 19C10.0005 21.4441 10.0106 21.7509 10.055 22.7105C10.0986 23.6687 10.2505 24.323 10.473 24.8951C10.7028 25.4868 11.0103 25.9895 11.5111 26.4894C12.012 26.9893 12.5133 27.2971 13.1054 27.5275C13.6782 27.7499 14.3319 27.9019 15.29 27.9455C16.2501 27.9891 16.5564 28 19.0005 28C21.4446 28 21.7514 27.9898 22.711 27.9455C23.6692 27.9019 24.3234 27.7499 24.8956 27.5275C25.4873 27.2971 25.989 26.9895 26.4899 26.4894C26.9908 25.9893 27.2976 25.4868 27.528 24.8951C27.7504 24.323 27.9031 23.6686 27.946 22.7105C27.9896 21.7502 27.9998 21.4441 27.9998 19C27.9998 16.5559 27.9896 16.2491 27.946 15.2895C27.9024 14.3313 27.7504 13.6767 27.528 13.1049C27.2976 12.5132 26.99 12.0115 26.4899 11.5106C25.9897 11.0097 25.4873 10.7023 24.8963 10.4725C24.3234 10.2501 23.6691 10.0974 22.7117 10.0545C21.7521 10.0109 21.4453 10 19.0012 10C16.5571 10 16.2501 10.0102 15.29 10.0545Z" fill="url(#paint0_radial_15_75)"></path><path d="M16.001 19C16.001 17.3432 17.3437 15.9998 19.0005 15.9998C20.6573 15.9998 22.0007 17.3432 22.0007 19C22.0007 20.6568 20.6573 22.0002 19.0005 22.0002C17.3437 22.0002 16.001 20.6568 16.001 19ZM14.3791 19C14.3791 21.5524 16.4481 23.6214 19.0005 23.6214C21.5529 23.6214 23.6219 21.5524 23.6219 19C23.6219 16.4476 21.5529 14.3786 19.0005 14.3786C16.4481 14.3786 14.3791 16.4476 14.3791 19ZM22.7248 14.1954C22.7247 14.409 22.788 14.6178 22.9066 14.7955C23.0252 14.9731 23.1938 15.1116 23.3911 15.1934C23.5884 15.2752 23.8056 15.2967 24.0151 15.2551C24.2246 15.2135 24.4171 15.1108 24.5682 14.9598C24.7193 14.8088 24.8222 14.6164 24.864 14.4069C24.9058 14.1974 24.8844 13.9803 24.8028 13.7829C24.7211 13.5855 24.5828 13.4168 24.4052 13.2981C24.2276 13.1793 24.0189 13.1159 23.8053 13.1158H23.8048C23.5185 13.1159 23.244 13.2297 23.0415 13.4321C22.839 13.6345 22.7251 13.909 22.7248 14.1954ZM15.3645 26.3258C14.487 26.2858 14.0101 26.1397 13.6932 26.0162C13.273 25.8526 12.9732 25.6578 12.6579 25.343C12.3427 25.0282 12.1476 24.7287 11.9847 24.3085C11.8612 23.9917 11.715 23.5146 11.6751 22.6372C11.6315 21.6885 11.6228 21.4035 11.6228 19.0001C11.6228 16.5966 11.6322 16.3125 11.6751 15.363C11.7151 14.4855 11.8623 14.0094 11.9847 13.6917C12.1483 13.2715 12.3432 12.9717 12.6579 12.6564C12.9727 12.3412 13.2722 12.1461 13.6932 11.9832C14.01 11.8597 14.487 11.7135 15.3645 11.6736C16.3132 11.63 16.5981 11.6213 19.0005 11.6213C21.4028 11.6213 21.6881 11.6307 22.6376 11.6736C23.515 11.7136 23.9912 11.8608 24.3089 11.9832C24.7291 12.1461 25.0289 12.3417 25.3441 12.6564C25.6593 12.9712 25.8537 13.2715 26.0173 13.6917C26.1409 14.0085 26.287 14.4855 26.3269 15.363C26.3706 16.3125 26.3793 16.5966 26.3793 19.0001C26.3793 21.4035 26.3706 21.6877 26.3269 22.6372C26.287 23.5146 26.1401 23.9915 26.0173 24.3085C25.8537 24.7287 25.6589 25.0285 25.3441 25.343C25.0293 25.6575 24.7291 25.8526 24.3089 26.0162C23.9921 26.1397 23.515 26.2859 22.6376 26.3258C21.6889 26.3694 21.4039 26.3781 19.0005 26.3781C16.5971 26.3781 16.3129 26.3694 15.3645 26.3258ZM15.29 10.0545C14.3319 10.0981 13.6772 10.2501 13.1054 10.4725C12.5133 10.7023 12.012 11.0105 11.5111 11.5106C11.0102 12.0107 10.7028 12.5128 10.473 13.1049C10.2505 13.677 10.0986 14.3314 10.055 15.2895C10.0106 16.2491 10.0005 16.5559 10.0005 19C10.0005 21.4441 10.0106 21.7509 10.055 22.7105C10.0986 23.6687 10.2505 24.323 10.473 24.8951C10.7028 25.4868 11.0103 25.9895 11.5111 26.4894C12.012 26.9893 12.5133 27.2971 13.1054 27.5275C13.6782 27.7499 14.3319 27.9019 15.29 27.9455C16.2501 27.9891 16.5564 28 19.0005 28C21.4446 28 21.7514 27.9898 22.711 27.9455C23.6692 27.9019 24.3234 27.7499 24.8956 27.5275C25.4873 27.2971 25.989 26.9895 26.4899 26.4894C26.9908 25.9893 27.2976 25.4868 27.528 24.8951C27.7504 24.323 27.9031 23.6686 27.946 22.7105C27.9896 21.7502 27.9998 21.4441 27.9998 19C27.9998 16.5559 27.9896 16.2491 27.946 15.2895C27.9024 14.3313 27.7504 13.6767 27.528 13.1049C27.2976 12.5132 26.99 12.0115 26.4899 11.5106C25.9897 11.0097 25.4873 10.7023 24.8963 10.4725C24.3234 10.2501 23.6691 10.0974 22.7117 10.0545C21.7521 10.0109 21.4453 10 19.0012 10C16.5571 10 16.2501 10.0102 15.29 10.0545Z" fill="black"></path></g><defs><radialGradient id="paint0_radial_15_75" cx="0" cy="0" r="1" gradientUnits="userSpaceOnUse" gradientTransform="translate(12.3919 28.085) scale(23.4975 23.4975)"><stop offset="0.09" stop-color="#FA8F21"></stop><stop offset="0.78" stop-color="#D82D7E"></stop></radialGradient><clipPath id="clip0_15_75"><rect width="18" height="18" fill="white" transform="translate(10 10)"></rect></clipPath></defs></svg>