<svg xmlns="http://www.w3.org/2000/svg" width="165" height="165" viewBox="0 0 165 165" fill="none"><path d="M44.6868 20.625C66.647 20.625 82.4994 38.7547 82.4988 65.5987C82.3582 104.602 53.0378 132.178 10.7389 137.473C6.81456 137.965 5.30139 132.528 8.91519 130.922C25.1456 123.705 33.3428 114.547 34.4016 105.482C35.1927 98.7097 31.5111 92.7773 26.8884 91.6664C14.904 88.7866 6.87434 73.8622 6.87434 58.4375C6.87434 37.5542 23.8036 20.625 44.6868 20.625Z" fill="#FFD966"></path><path d="M127.187 20.625C149.147 20.625 164.999 38.7547 164.999 65.5987C164.858 104.602 135.538 132.178 93.2389 137.473C89.3146 137.965 87.8014 132.528 91.4152 130.922C107.646 123.705 115.843 114.547 116.902 105.482C117.693 98.7097 114.011 92.7773 109.388 91.6664C97.404 88.7866 89.3743 73.8622 89.3743 58.4375C89.3743 37.5542 106.304 20.625 127.187 20.625Z" fill="#FFD966"></path></svg>