<svg xmlns="http://www.w3.org/2000/svg" width="38" height="38" viewBox="0 0 38 38" fill="none"><rect width="38" height="38" rx="19" fill="#9900FF"></rect><g clip-path="url(#clip0_15_50)"><path d="M25.6668 17.3334C25.6668 21.4942 21.051 25.8275 19.501 27.1659C19.3566 27.2744 19.1808 27.3331 19.0002 27.3331C18.8195 27.3331 18.6437 27.2744 18.4993 27.1659C16.9493 25.8275 12.3335 21.4942 12.3335 17.3334C12.3335 15.5652 13.0359 13.8696 14.2861 12.6193C15.5364 11.3691 17.2321 10.6667 19.0002 10.6667C20.7683 10.6667 22.464 11.3691 23.7142 12.6193C24.9645 13.8696 25.6668 15.5652 25.6668 17.3334Z" stroke="white" stroke-width="2" stroke-linecap="round" stroke-linejoin="round"></path><path d="M19 19.8333C20.3807 19.8333 21.5 18.714 21.5 17.3333C21.5 15.9526 20.3807 14.8333 19 14.8333C17.6193 14.8333 16.5 15.9526 16.5 17.3333C16.5 18.714 17.6193 19.8333 19 19.8333Z" stroke="white" stroke-width="2" stroke-linecap="round" stroke-linejoin="round"></path></g><defs><clipPath id="clip0_15_50"><rect width="20" height="20" fill="white" transform="translate(9 9)"></rect></clipPath></defs></svg>