<svg xmlns="http://www.w3.org/2000/svg" width="59" height="59" viewBox="0 0 59 59" fill="none"><path d="M0 18.721C0 8.38167 8.38166 0 18.721 0H40.1163C50.4556 0 58.8373 8.38166 58.8373 18.721V40.1163C58.8373 50.4556 50.4556 58.8373 40.1163 58.8373H18.721C8.38167 58.8373 0 50.4556 0 40.1163V18.721Z" fill="#FEF3C7"></path><path d="M20.7189 35.8683L18.9189 34.9683L24.9189 22.9683L26.7189 23.8683L20.7189 35.8683ZM27.3189 35.8683L25.5189 34.9683L31.5189 22.9683L33.3189 23.8683L27.3189 35.8683ZM33.9189 35.8683L32.1189 34.9683L38.1189 22.9683L39.9189 23.8683L33.9189 35.8683Z" fill="#E1B123"></path></svg>