<svg xmlns="http://www.w3.org/2000/svg" width="59" height="59" viewBox="0 0 59 59" fill="none"><path d="M0 18.721C0 8.38167 8.38166 0 18.721 0H40.1163C50.4556 0 58.8373 8.38166 58.8373 18.721V40.1163C58.8373 50.4556 50.4556 58.8373 40.1163 58.8373H18.721C8.38167 58.8373 0 50.4556 0 40.1163V18.721Z" fill="#F5F3FF"></path><path d="M29.4189 39.4185C29.0189 39.4185 28.6356 39.3435 28.2689 39.1935C27.9023 39.0435 27.5773 38.8268 27.2939 38.5435C26.8106 38.0601 26.3939 37.7435 26.0439 37.5935C25.6939 37.4435 25.1689 37.3685 24.4689 37.3685C23.6356 37.3685 22.9273 37.0768 22.3439 36.4935C21.7606 35.9101 21.4689 35.2018 21.4689 34.3685C21.4689 33.6685 21.3939 33.1435 21.2439 32.7935C21.0939 32.4435 20.7773 32.0268 20.2939 31.5435C20.0106 31.2601 19.7939 30.9351 19.6439 30.5685C19.4939 30.2018 19.4189 29.8185 19.4189 29.4185C19.4189 29.0185 19.4939 28.6351 19.6439 28.2685C19.7939 27.9018 20.0106 27.5768 20.2939 27.2935C20.7773 26.8101 21.0939 26.3935 21.2439 26.0435C21.3939 25.6935 21.4689 25.1685 21.4689 24.4685C21.4689 23.6351 21.7606 22.9268 22.3439 22.3435C22.9273 21.7601 23.6356 21.4685 24.4689 21.4685C25.1689 21.4685 25.6939 21.3935 26.0439 21.2435C26.3939 21.0935 26.8106 20.7768 27.2939 20.2935C27.5773 20.0101 27.9023 19.7935 28.2689 19.6435C28.6356 19.4935 29.0189 19.4185 29.4189 19.4185C29.8189 19.4185 30.2023 19.4935 30.5689 19.6435C30.9356 19.7935 31.2606 20.0101 31.5439 20.2935C32.0273 20.7768 32.4439 21.0935 32.7939 21.2435C33.1439 21.3935 33.6689 21.4685 34.3689 21.4685C35.2023 21.4685 35.9106 21.7601 36.4939 22.3435C37.0773 22.9268 37.3689 23.6351 37.3689 24.4685C37.3689 25.1685 37.4439 25.6935 37.5939 26.0435C37.7439 26.3935 38.0606 26.8101 38.5439 27.2935C38.8273 27.5768 39.0439 27.9018 39.1939 28.2685C39.3439 28.6351 39.4189 29.0185 39.4189 29.4185C39.4189 29.8185 39.3439 30.2018 39.1939 30.5685C39.0439 30.9351 38.8273 31.2601 38.5439 31.5435C38.0606 32.0268 37.7439 32.4435 37.5939 32.7935C37.4439 33.1435 37.3689 33.6685 37.3689 34.3685C37.3689 35.2018 37.0773 35.9101 36.4939 36.4935C35.9106 37.0768 35.2023 37.3685 34.3689 37.3685C33.6689 37.3685 33.1439 37.4435 32.7939 37.5935C32.4439 37.7435 32.0273 38.0601 31.5439 38.5435C31.2606 38.8268 30.9356 39.0435 30.5689 39.1935C30.2023 39.3435 29.8189 39.4185 29.4189 39.4185ZM29.4189 37.4185C29.5523 37.4185 29.6814 37.3893 29.8064 37.331C29.9314 37.2726 30.0356 37.2018 30.1189 37.1185C30.8023 36.4351 31.4439 35.9726 32.0439 35.731C32.6439 35.4893 33.4189 35.3685 34.3689 35.3685C34.6523 35.3685 34.8898 35.2726 35.0814 35.081C35.2731 34.8893 35.3689 34.6518 35.3689 34.3685C35.3689 33.4018 35.4898 32.6226 35.7314 32.031C35.9731 31.4393 36.4356 30.8018 37.1189 30.1185C37.3189 29.9185 37.4189 29.6851 37.4189 29.4185C37.4189 29.1518 37.3189 28.9185 37.1189 28.7185C36.4356 28.0351 35.9731 27.3935 35.7314 26.7935C35.4898 26.1935 35.3689 25.4185 35.3689 24.4685C35.3689 24.1851 35.2731 23.9476 35.0814 23.756C34.8898 23.5643 34.6523 23.4685 34.3689 23.4685C33.4023 23.4685 32.6231 23.3476 32.0314 23.106C31.4398 22.8643 30.8023 22.4018 30.1189 21.7185C30.0356 21.6351 29.9314 21.5643 29.8064 21.506C29.6814 21.4476 29.5523 21.4185 29.4189 21.4185C29.2856 21.4185 29.1564 21.4476 29.0314 21.506C28.9064 21.5643 28.8023 21.6351 28.7189 21.7185C28.0356 22.4018 27.3939 22.8643 26.7939 23.106C26.1939 23.3476 25.4189 23.4685 24.4689 23.4685C24.1856 23.4685 23.9481 23.5643 23.7564 23.756C23.5648 23.9476 23.4689 24.1851 23.4689 24.4685C23.4689 25.4351 23.3481 26.2143 23.1064 26.806C22.8648 27.3976 22.4023 28.0351 21.7189 28.7185C21.5189 28.9185 21.4189 29.1518 21.4189 29.4185C21.4189 29.6851 21.5189 29.9185 21.7189 30.1185C22.4023 30.8018 22.8648 31.4435 23.1064 32.0435C23.3481 32.6435 23.4689 33.4185 23.4689 34.3685C23.4689 34.6518 23.5648 34.8893 23.7564 35.081C23.9481 35.2726 24.1856 35.3685 24.4689 35.3685C25.4356 35.3685 26.2148 35.4893 26.8064 35.731C27.3981 35.9726 28.0356 36.4351 28.7189 37.1185C28.8023 37.2018 28.9064 37.2726 29.0314 37.331C29.1564 37.3893 29.2856 37.4185 29.4189 37.4185ZM31.9189 33.4185C32.3356 33.4185 32.6898 33.2726 32.9814 32.981C33.2731 32.6893 33.4189 32.3351 33.4189 31.9185C33.4189 31.5018 33.2731 31.1476 32.9814 30.856C32.6898 30.5643 32.3356 30.4185 31.9189 30.4185C31.5023 30.4185 31.1481 30.5643 30.8564 30.856C30.5648 31.1476 30.4189 31.5018 30.4189 31.9185C30.4189 32.3351 30.5648 32.6893 30.8564 32.981C31.1481 33.2726 31.5023 33.4185 31.9189 33.4185ZM26.8689 33.3685L33.3689 26.8685L31.9689 25.4685L25.4689 31.9685L26.8689 33.3685ZM27.9814 27.981C28.2731 27.6893 28.4189 27.3351 28.4189 26.9185C28.4189 26.5018 28.2731 26.1476 27.9814 25.856C27.6898 25.5643 27.3356 25.4185 26.9189 25.4185C26.5023 25.4185 26.1481 25.5643 25.8564 25.856C25.5648 26.1476 25.4189 26.5018 25.4189 26.9185C25.4189 27.3351 25.5648 27.6893 25.8564 27.981C26.1481 28.2726 26.5023 28.4185 26.9189 28.4185C27.3356 28.4185 27.6898 28.2726 27.9814 27.981Z" fill="#9900FF"></path></svg>