<svg xmlns="http://www.w3.org/2000/svg" width="59" height="59" viewBox="0 0 59 59" fill="none"><path d="M0 18.721C0 8.38167 8.38166 0 18.721 0H40.1163C50.4556 0 58.8373 8.38166 58.8373 18.721V40.1163C58.8373 50.4556 50.4556 58.8373 40.1163 58.8373H18.721C8.38167 58.8373 0 50.4556 0 40.1163V18.721Z" fill="#FEF3C7"></path><path d="M31.6689 31.6685C32.8356 30.5018 33.4189 29.0851 33.4189 27.4185C33.4189 25.7518 32.8356 24.3351 31.6689 23.1685C30.5023 22.0018 29.0856 21.4185 27.4189 21.4185C25.7523 21.4185 24.3356 22.0018 23.1689 23.1685C22.0023 24.3351 21.4189 25.7518 21.4189 27.4185C21.4189 29.0851 22.0023 30.5018 23.1689 31.6685C24.3356 32.8351 25.7523 33.4185 27.4189 33.4185C29.0856 33.4185 30.5023 32.8351 31.6689 31.6685ZM26.3689 30.9685L32.0189 25.2935L30.5939 23.8685L26.3689 28.1185L24.2439 26.0185L22.8189 27.4185L26.3689 30.9685ZM27.4189 35.4185C25.1856 35.4185 23.2939 34.6435 21.7439 33.0935C20.1939 31.5435 19.4189 29.6518 19.4189 27.4185C19.4189 25.1851 20.1939 23.2935 21.7439 21.7435C23.2939 20.1935 25.1856 19.4185 27.4189 19.4185C29.6523 19.4185 31.5439 20.1935 33.0939 21.7435C34.6439 23.2935 35.4189 25.1851 35.4189 27.4185C35.4189 28.3518 35.2731 29.231 34.9814 30.056C34.6898 30.881 34.2773 31.6351 33.7439 32.3185L39.4189 38.0185L38.0189 39.4185L32.3189 33.7435C31.6356 34.2768 30.8814 34.6893 30.0564 34.981C29.2314 35.2726 28.3523 35.4185 27.4189 35.4185Z" fill="#E1B123"></path></svg>