<svg xmlns="http://www.w3.org/2000/svg" width="59" height="59" viewBox="0 0 59 59" fill="none"><path d="M0 18.721C0 8.38167 8.38166 0 18.721 0H40.1163C50.4556 0 58.8373 8.38166 58.8373 18.721V40.1163C58.8373 50.4556 50.4556 58.8373 40.1163 58.8373H18.721C8.38167 58.8373 0 50.4556 0 40.1163V18.721Z" fill="#F5F3FF"></path><path d="M33.0674 30.3364V28.3364H37.0674V30.3364H33.0674ZM34.2674 37.3364L31.0674 34.9364L32.2674 33.3364L35.4674 35.7364L34.2674 37.3364ZM32.2674 25.3364L31.0674 23.7364L34.2674 21.3364L35.4674 22.9364L32.2674 25.3364ZM20.0674 32.3364V26.3364H24.0674L29.0674 21.3364V37.3364L24.0674 32.3364H20.0674ZM27.0674 26.1864L24.9174 28.3364H22.0674V30.3364H24.9174L27.0674 32.4864V26.1864Z" fill="#9900FF"></path></svg>