<svg xmlns="http://www.w3.org/2000/svg" width="75" height="76" viewBox="0 0 75 76" fill="none"><path d="M73.074 0.117381L52.3461 4.66416C51.305 7.71182 57.6459 9.01738 56.0268 11.4432C53.6249 15.0344 52.1247 11.9332 49.4605 10.5824C46.5544 9.10798 42.849 7.98364 39.6232 7.49355C40.6766 -2.51432 27.0439 -2.48137 28.1096 7.49355C2.20484 11.7067 -8.93994 43.3695 8.24654 63.5252C32.7331 92.2433 78.2139 65.0902 65.7411 29.2308C65.3271 28.0406 62.5071 22.5877 62.6014 22.217C62.7244 21.7269 65.0566 19.47 65.5608 19.5153C67.2085 19.6636 70.3195 25.3182 71.791 23.1725L74.8324 1.89244C74.943 0.833993 74.1397 0.0185377 73.0658 0.121499L73.074 0.117381ZM36.7376 6.68633H30.9993C30.3148 1.31173 37.3976 1.25819 36.7376 6.68633ZM48.2226 69.0893C22.5597 82.3589 -5.01324 56.8574 4.75842 29.9474C8.79169 18.8399 19.1782 10.7636 30.9173 9.6928C38.16 9.02973 46.1322 11.0725 51.8952 15.541C50.9853 16.0188 50.1204 18.2469 49.3088 18.1768C49.0137 18.1521 45.4846 15.9529 44.5173 15.5493C18.756 4.75477 -4.32873 34.6795 11.8125 57.4752C29.1999 82.0377 67.8725 63.7682 60.306 33.8723C59.9904 32.6326 57.6951 27.5916 57.8385 27.2704C58.1173 26.6485 59.8347 25.5406 60.3101 24.8158C70.2539 39.704 63.8474 61.013 48.2267 69.0893H48.2226ZM69.9342 19.0417C69.2415 19.8366 66.0116 14.3384 64.4705 16.2082L50.0548 31.393C48.6858 32.3443 47.616 36.2157 50.1409 35.219C51.5755 34.6507 55.162 29.1402 55.994 29.7497C62.253 43.32 56.199 59.4191 42.1645 64.6496C16.6451 74.1632 -3.04989 39.3746 18.2887 21.7146C25.1297 16.0517 39.4634 13.5353 46.5667 19.6677C47.5381 20.5079 47.6365 22.6948 49.1572 22.2912C49.9155 22.0894 59.7404 11.5791 59.9453 10.8171C60.3101 9.45393 56.9737 7.65005 56.4121 6.28272L71.9878 3.3998L69.9383 19.0458L69.9342 19.0417Z" fill="#FFD966"></path><path d="M51.7641 40.1115C52.7765 39.7902 57.2566 39.5184 56.7688 41.4212C55.9859 44.4606 48.153 41.2482 51.7641 40.1115Z" fill="#FFD966"></path><path d="M11.5954 40.1115C12.6078 39.7902 17.0879 39.5184 16.6001 41.4212C15.8172 44.4606 7.98433 41.2482 11.5954 40.1115Z" fill="#FFD966"></path><path d="M33.7126 17.8309C35.4588 17.5384 35.8645 23.4237 34.0733 23.5967C31.6878 23.8273 32.36 18.0574 33.7126 17.8309Z" fill="#FFD966"></path><path d="M33.2945 59.0276C36.0039 58.1339 35.3849 63.9986 34.4381 64.3116C31.7288 65.2053 32.3477 59.3406 33.2945 59.0276Z" fill="#FFD966"></path><path d="M17.5797 24.9064C18.92 23.5143 22.2893 27.2786 21.3875 28.5306C20.2809 30.0709 16.0795 26.4673 17.5797 24.9064Z" fill="#FFD966"></path><path d="M46.2594 53.7317C47.6202 52.3644 51.5264 56.3675 49.8705 57.5701C48.6285 58.472 44.8822 55.1114 46.2594 53.7317Z" fill="#FFD966"></path><path d="M46.8742 25.2853L28.5318 36.5411C26.1832 42.3152 20.494 49.3371 18.6085 54.9877C18.3544 55.7455 17.9404 56.4662 18.6823 57.1622C19.2438 57.5946 19.7029 57.1869 20.2194 57.0263C21.4941 56.6227 37.6477 46.7054 38.5371 45.7747C39.4512 44.8192 47.6161 29.202 48.0178 27.707C48.3457 26.4961 48.4973 25.0423 46.8701 25.2894L46.8742 25.2853ZM23.2115 51.9853L28.954 40.8737C29.6918 41.1785 29.5443 42.4964 30.0074 43.3077C30.737 44.5886 32.3807 45.5811 33.8685 45.404L23.2156 51.9853H23.2115ZM34.0079 42.8341C31.7781 43.0277 31.4707 39.5146 33.7292 39.3169C35.959 39.1234 36.2664 42.6364 34.0079 42.8341ZM38.1723 40.8696C37.5698 38.312 36.2418 36.6729 33.4628 36.747L43.2959 30.5775L38.1723 40.8696Z" fill="#FFD966"></path></svg>