<svg xmlns="http://www.w3.org/2000/svg" width="107" height="85" viewBox="0 0 107 85" fill="none"><path fill-rule="evenodd" clip-rule="evenodd" d="M84.8182 71.772C79.6155 71.772 75.353 67.5722 75.353 62.2441C75.353 56.9788 79.6155 52.7163 84.8182 52.7163C90.0209 52.7163 94.4087 56.9788 94.4087 62.2441C94.4087 67.5722 90.1462 71.772 84.8182 71.772ZM84.8182 55.8505C81.3079 55.8505 78.4245 58.6712 78.4245 62.3068C78.4245 66.0051 81.3079 68.8259 84.8182 68.8259C88.3911 68.8259 91.3372 66.0051 91.3372 62.3068C91.3372 58.6712 88.3911 55.8505 84.8182 55.8505Z" fill="#FFD966"></path><path fill-rule="evenodd" clip-rule="evenodd" d="M88.5793 84.3087H81.12C80.2424 84.3087 79.5529 83.6192 79.5529 82.7416V79.106C78.4873 78.7299 77.547 78.2911 76.6068 77.8523L74.0995 80.4223C73.4726 80.9865 72.5324 80.9865 71.9056 80.4223L66.5775 75.2197C66.3268 74.9062 66.1387 74.4675 66.1387 74.154C66.1387 73.7779 66.3268 73.3392 66.5775 73.0884L69.1475 70.5811C68.5834 69.6409 68.27 68.5752 67.8939 67.635H64.2582C63.3807 67.635 62.6912 66.9455 62.6912 66.0679V58.6086C62.6912 57.7311 63.3807 57.0416 64.2582 57.0416H68.0192C68.27 56.1013 68.7087 55.0357 69.2102 54.0955L66.5775 51.4628C66.3268 51.212 66.1387 50.7732 66.1387 50.4598C66.1387 50.0837 66.3268 49.645 66.5775 49.3942L71.9056 44.1915C72.5324 43.5647 73.4726 43.5647 74.0995 44.1915L76.6695 46.6362C77.6097 46.072 78.6127 45.6332 79.6156 45.3825V41.8096C79.6156 40.9947 80.3051 40.3052 81.1827 40.3052H88.642C89.5195 40.3052 90.209 40.9947 90.209 41.8096V45.5079C91.2746 45.8213 92.2149 46.2601 93.1551 46.6988L95.7251 44.1915C96.2893 43.5647 97.2295 43.5647 97.8564 44.1915L103.059 49.3942C103.31 49.645 103.498 50.0837 103.498 50.4598C103.498 50.7732 103.31 51.212 103.059 51.4628L100.552 53.9701C101.053 54.973 101.492 55.9759 101.868 56.9789H105.441C106.319 56.9789 107.008 57.6684 107.008 58.5459V66.0052C107.008 66.8828 106.319 67.5723 105.441 67.5723H101.868C101.492 68.5752 101.053 69.6409 100.677 70.5184L103.184 73.0257C103.435 73.2765 103.623 73.7153 103.623 74.0914C103.623 74.4048 103.435 74.8436 103.184 75.0943L97.9817 80.297C97.3549 80.9238 96.4147 80.9238 95.7878 80.297L93.2805 77.7897C92.4029 78.2911 91.3373 78.6672 90.3344 78.9806V82.6789C90.1463 83.6192 89.4568 84.3087 88.5793 84.3087ZM82.6871 81.2999H87.0749V78.0404C87.0749 77.3509 87.5137 76.724 88.2032 76.5987C89.9583 76.1599 91.3373 75.5331 92.591 74.7809C93.1551 74.3421 93.97 74.4048 94.4715 74.9062L96.8534 77.1628L99.9249 74.0914L97.6056 71.7721C97.1042 71.2706 96.9788 70.5184 97.4176 69.8916C98.2951 68.5752 98.922 67.1335 99.2354 65.6291C99.4234 64.9396 100.05 64.4382 100.74 64.4382H103.937V59.9877H100.74C100.05 59.9877 99.4234 59.4862 99.2354 58.7967C98.922 57.2923 98.2951 55.9133 97.4176 54.5342C97.1042 53.9074 97.1669 53.1552 97.6056 52.5911L99.9249 50.2718L96.8534 47.1376L94.4715 49.3942C93.97 49.8957 93.1551 50.0211 92.6537 49.645C91.3373 48.8928 89.8956 48.2659 88.3285 47.8271C87.639 47.6391 87.2002 47.0749 87.2002 46.3854V43.1259H82.7497V46.3854C82.7497 47.0749 82.311 47.6391 81.6214 47.8271C80.0544 48.2032 78.6753 48.7674 77.2963 49.645C76.6695 50.0211 75.9173 49.8957 75.4785 49.3942L73.0966 47.0749L69.9624 50.1464L72.219 52.4657C72.7831 52.9672 72.8458 53.6567 72.5324 54.2835C71.6548 55.7252 71.028 57.2296 70.7773 58.6086C70.5892 59.2981 69.9624 59.7996 69.2729 59.7996H66.0134V64.2501H69.2729C69.9624 64.2501 70.5892 64.7516 70.7773 65.4411C71.0907 66.9455 71.7175 68.3872 72.5324 69.7035C72.8458 70.3304 72.7831 71.0826 72.219 71.5213L69.9624 73.7779L73.0966 76.9121L75.4785 74.5928C75.98 74.0914 76.7322 73.966 77.2963 74.3421C78.6753 75.2197 80.0544 75.7838 81.6214 76.1599C82.311 76.3479 82.7497 76.9121 82.7497 77.6016V81.2999H82.6871Z" fill="#FFD966"></path><path fill-rule="evenodd" clip-rule="evenodd" d="M41.567 68.0113C40.6894 68.0113 39.9999 67.2591 39.9999 66.4442C39.9999 54.7225 42.8833 50.8988 45.3907 47.5139C47.3338 44.9439 48.7756 42.938 48.7756 37.7353C48.7756 28.3956 41.1282 20.7482 31.7884 20.7482C22.386 20.7482 14.7386 28.3956 14.7386 37.7353C14.7386 42.938 16.243 44.9439 18.1235 47.5139C20.6309 50.8988 23.5143 54.7225 23.5143 66.4442C23.5143 67.2591 22.8248 68.0113 21.9472 68.0113C21.0696 68.0113 20.3801 67.2591 20.3801 66.4442C20.3801 55.7254 17.9355 52.4659 15.6162 49.3317C13.7357 46.699 11.6045 44.0036 11.6045 37.7353C11.6045 26.7031 20.5682 17.6768 31.6631 17.6768C42.8207 17.6768 51.7217 26.6404 51.7217 37.7353C51.7217 44.0036 49.7785 46.699 47.7726 49.3317C45.3907 52.4659 43.0087 55.7254 43.0087 66.4442C43.1341 67.2591 42.4446 68.0113 41.567 68.0113Z" fill="#FFD966"></path><path fill-rule="evenodd" clip-rule="evenodd" d="M20.0666 42.1229C19.189 42.1229 18.4995 41.4333 18.4995 40.5558C18.4995 31.7801 25.5827 24.6343 34.3583 24.6343C35.2359 24.6343 35.9254 25.3238 35.9254 26.2014C35.9254 27.0789 35.2359 27.7684 34.3583 27.7684C27.2751 27.7684 21.5083 33.4726 21.5083 40.6185C21.5083 41.4333 20.8188 42.1229 20.0666 42.1229Z" fill="#FFD966"></path><path fill-rule="evenodd" clip-rule="evenodd" d="M46.6443 18.6797C46.3936 18.6797 46.0802 18.5543 45.8294 18.4917C45.1399 18.0529 44.8892 17.1753 45.2653 16.4231L47.8353 11.8472C48.2741 11.1577 49.1516 10.907 49.9038 11.2831C50.5933 11.7219 50.9068 12.5994 50.5307 13.3516L47.898 17.8648C47.6472 18.3663 47.1458 18.6797 46.6443 18.6797Z" fill="#FFD966"></path><path fill-rule="evenodd" clip-rule="evenodd" d="M57.5511 29.5865C57.0496 29.5865 56.5482 29.3358 56.2975 28.8343C55.8587 28.1448 56.1094 27.1419 56.8616 26.7031L61.3748 24.1331C62.0643 23.6943 63.0672 23.945 63.506 24.7599C63.8821 25.4494 63.6314 26.3897 62.8792 26.8284L58.366 29.3985C58.1153 29.5238 57.8018 29.5865 57.5511 29.5865Z" fill="#FFD966"></path><path fill-rule="evenodd" clip-rule="evenodd" d="M16.9326 18.6794C16.4311 18.6794 15.867 18.366 15.6162 17.8645L13.0462 13.3513C12.6074 12.6618 12.8582 11.7216 13.6104 11.2828C14.2999 10.844 15.3028 11.0948 15.6789 11.847L18.3116 16.4228C18.7504 17.1123 18.4997 18.0526 17.6848 18.4914C17.434 18.6794 17.1833 18.6794 16.9326 18.6794Z" fill="#FFD966"></path><path fill-rule="evenodd" clip-rule="evenodd" d="M6.0883 29.5862C5.83757 29.5862 5.52415 29.5235 5.27342 29.3981L0.76024 26.8281C0.0707264 26.3893 -0.180006 25.5118 0.133409 24.7596C0.572191 24.0074 1.44975 23.7567 2.26463 24.1328L6.77781 26.7028C7.46733 27.1415 7.71806 28.0191 7.34196 28.834C7.09123 29.2728 6.58977 29.5862 6.0883 29.5862Z" fill="#FFD966"></path><path fill-rule="evenodd" clip-rule="evenodd" d="M44.6383 73.4647C43.7608 73.4647 43.0713 72.7751 43.0713 71.8976C43.0713 71.02 43.7608 70.3305 44.6383 70.3305C45.2652 70.3305 45.7666 69.829 45.7666 69.1395C45.7666 68.3873 45.2652 68.0112 44.6383 68.0112H18.9383C18.2488 68.0112 17.81 68.5127 17.81 69.1395C17.81 69.829 18.3115 70.3305 18.9383 70.3305C19.8159 70.3305 20.5054 71.02 20.5054 71.8976C20.5054 72.7751 19.8159 73.4647 18.9383 73.4647C16.5563 73.4647 14.7385 71.5215 14.7385 69.2022C14.7385 66.8829 16.6817 65.0024 18.9383 65.0024H44.6383C46.9576 65.0024 48.7754 66.9456 48.7754 69.2022C48.9008 71.5215 46.9576 73.4647 44.6383 73.4647Z" fill="#FFD966"></path><path fill-rule="evenodd" clip-rule="evenodd" d="M44.6383 78.9181H18.9383C16.5563 78.9181 14.7385 77.0376 14.7385 74.6556C14.7385 72.3364 16.6817 70.5186 18.9383 70.5186H44.6383C46.9576 70.5186 48.7754 72.399 48.7754 74.6556C48.9008 76.9122 46.9576 78.9181 44.6383 78.9181ZM18.9383 73.4647C18.2488 73.4647 17.81 73.9661 17.81 74.593C17.81 75.2825 18.3115 75.7839 18.9383 75.7839H44.6383C45.2652 75.7839 45.7666 75.2825 45.7666 74.593C45.7666 73.9034 45.2652 73.4647 44.6383 73.4647H18.9383Z" fill="#FFD966"></path><path fill-rule="evenodd" clip-rule="evenodd" d="M33.7943 84.3086H29.8453C26.0216 84.3086 22.8875 81.1744 22.8875 77.3508C22.8875 76.4732 23.6396 75.7837 24.4545 75.7837C25.3321 75.7837 26.0216 76.4732 26.0216 77.3508C26.0216 79.5447 27.7767 81.2998 29.9706 81.2998H33.857C36.0509 81.2998 37.7433 79.5447 37.7433 77.3508C37.7433 76.4732 38.4329 75.7837 39.3104 75.7837C40.188 75.7837 40.8775 76.4732 40.8775 77.3508C40.6894 81.1744 37.618 84.3086 33.7943 84.3086Z" fill="#FFD966"></path><path fill-rule="evenodd" clip-rule="evenodd" d="M31.7883 68.011C30.9107 68.011 30.2212 67.2588 30.2212 66.4439V50.9612C30.2212 50.4597 30.4719 49.8956 30.9734 49.6449L37.0536 46.1973C37.7432 45.7585 38.7461 46.0092 39.1849 46.6988C39.561 47.3883 39.3102 48.3285 38.6207 48.7673L33.3553 51.8388V66.5066C33.3553 67.2588 32.6658 68.011 31.7883 68.011Z" fill="#FFD966"></path><path fill-rule="evenodd" clip-rule="evenodd" d="M31.7884 52.4656C31.5376 52.4656 31.2242 52.3402 30.9735 52.2776L25.0186 48.7673C24.3291 48.3285 24.0157 47.3883 24.4545 46.6988C24.8932 46.0092 25.8962 45.7585 26.5857 46.1973L32.5406 49.6449C33.2301 50.0836 33.4808 51.0239 33.1047 51.7134C32.7913 52.1522 32.2898 52.4656 31.7884 52.4656Z" fill="#FFD966"></path><path fill-rule="evenodd" clip-rule="evenodd" d="M84.8183 32.3445C83.9407 32.3445 83.2512 31.6549 83.2512 30.8401V7.64733C83.2512 5.07733 81.1826 3.00879 78.6753 3.00879H37.9313C35.3613 3.00879 33.2301 5.07733 33.2301 7.64733V19.3691C33.2301 20.1839 32.5406 20.9361 31.663 20.9361C30.8481 20.9361 30.0959 20.1839 30.0959 19.3691V7.64733C30.0959 3.38489 33.6062 0 37.8686 0H78.6126C82.8124 0 86.26 3.38489 86.26 7.64733V30.9028C86.3853 31.6549 85.6958 32.3445 84.8183 32.3445Z" fill="#FFD966"></path><path fill-rule="evenodd" clip-rule="evenodd" d="M84.8183 32.3446C84.5049 32.3446 84.0661 32.2193 83.8154 31.9685L76.3561 24.4466C75.7293 23.8824 75.7293 22.8795 76.3561 22.3153C76.9203 21.6885 77.9232 21.6885 78.4873 22.3153L84.8183 28.6463L91.1493 22.3153C91.7761 21.6885 92.7164 21.6885 93.3432 22.3153C93.9701 22.8795 93.9701 23.8824 93.3432 24.4466L85.8839 31.9685C85.6332 32.2193 85.2571 32.3446 84.8183 32.3446Z" fill="#FFD966"></path></svg>