<svg xmlns="http://www.w3.org/2000/svg" width="88" height="85" viewBox="0 0 88 85" fill="none"><path d="M11.982 67.7475C11.8471 68.4362 11.1825 68.8841 10.4889 68.7494C9.80001 68.6143 9.35227 67.9496 9.48701 67.2559C9.68463 66.235 10.2433 65.339 11.0189 64.6984C11.7847 64.0675 12.7626 63.6915 13.8222 63.6915C15.0407 63.6915 16.1486 64.1877 16.9481 64.9875C17.7476 65.787 18.2438 66.8897 18.2438 68.1135C18.2438 69.2984 17.7719 70.4207 16.924 71.2588C17.7717 72.0921 18.2438 73.2142 18.2438 74.404C18.2438 75.6227 17.7476 76.7304 16.9481 77.5299C16.1486 78.3297 15.0406 78.8261 13.8222 78.8261C12.7191 78.8261 11.7028 78.4164 10.9273 77.742C9.96398 76.9039 9.40052 75.6757 9.40052 74.4039C9.40052 73.7006 9.97367 73.1274 10.677 73.1274C11.3803 73.1274 11.9485 73.7006 11.9485 74.4039C11.9485 74.953 12.1701 75.454 12.5893 75.82C12.9167 76.1041 13.3504 76.2776 13.8224 76.2776C14.3376 76.2776 14.8049 76.0655 15.1469 75.7284C15.4841 75.3865 15.6912 74.9192 15.6912 74.4039C15.6912 73.8885 15.4841 73.4165 15.1469 73.0793C14.8049 72.7422 14.3376 72.5305 13.8224 72.5305C13.1191 72.5305 12.5459 71.9619 12.5459 71.2588C12.5459 70.5555 13.1191 69.9823 13.8224 69.9823C14.3184 69.9823 14.7954 69.7895 15.1469 69.433C15.4841 69.0958 15.6912 68.6289 15.6912 68.1134C15.6912 67.5931 15.4841 67.1259 15.1469 66.7888C14.8049 66.4517 14.3376 66.2396 13.8224 66.2396C13.3648 66.2396 12.9505 66.3987 12.6326 66.6588C12.3047 66.9285 12.0688 67.3091 11.982 67.7475ZM12.507 7.94759C11.8037 7.94759 11.2306 7.37444 11.2306 6.67113C11.2306 5.96783 11.8037 5.39451 12.507 5.39451H15.1369C15.8402 5.39451 16.4084 5.96783 16.4084 6.67113V18.9728C16.4084 19.6761 15.8401 20.2445 15.1369 20.2445C14.4336 20.2445 13.8605 19.6759 13.8605 18.9728V7.94759H12.507ZM17.1887 47.0114C17.892 47.0065 18.4652 47.57 18.4699 48.2733C18.4747 48.9718 17.9112 49.5451 17.2079 49.5499C17.1935 49.5499 11.3364 49.6318 10.5801 49.4777C9.65541 49.2945 9.39526 48.6104 9.67937 47.7579C9.79015 47.4257 10.0214 47.127 10.5319 46.4622C11.1726 45.6147 12.3526 44.073 14.2696 41.3374C14.5876 40.8847 14.8764 40.4558 15.0885 40.0225C15.2812 39.6276 15.4062 39.2085 15.4062 38.7655C15.4062 38.3174 15.2136 37.9079 14.9053 37.6046C14.5779 37.277 14.125 37.07 13.634 37.0457C13.1378 37.0457 12.7332 37.1422 12.3429 37.4649C12.0107 37.7347 11.7794 38.115 11.6928 38.5488C11.5579 39.2424 10.8884 39.6902 10.1995 39.5554C9.5108 39.4207 9.05796 38.751 9.19288 38.0623C9.39509 37.0411 9.94903 36.1403 10.7293 35.5045C11.5915 34.7966 12.6513 34.4447 13.7638 34.5023C14.891 34.565 15.9313 35.0467 16.6875 35.7935C17.4679 36.5595 17.9542 37.6046 17.9542 38.7655C17.9542 39.5796 17.7279 40.3982 17.3763 41.1255C17.097 41.7083 16.7357 42.2383 16.3505 42.7872C14.9441 44.8008 13.9565 46.1445 13.2725 47.0502C14.9731 47.0354 17.1792 47.0114 17.1887 47.0114ZM13.8221 29.2182C17.0057 29.2182 19.9199 30.3791 22.1645 32.3057H56.7632C57.4665 32.3057 58.0347 32.8743 58.0347 33.5774V50.4986C58.0347 51.2019 57.4663 51.775 56.7632 51.775H42.1059C41.4026 51.775 40.8344 51.2019 40.8344 50.4986C40.8344 49.7953 41.4028 49.227 42.1059 49.227H55.4867V34.854H24.4381C25.8301 36.9011 26.6442 39.3768 26.6442 42.0405C26.6442 44.7042 25.8301 47.1751 24.4381 49.227H36.3355C37.0387 49.227 37.6072 49.7954 37.6072 50.4986C37.6072 51.2019 37.0385 51.775 36.3355 51.775H22.1647C19.92 53.697 17.0061 54.8625 13.8222 54.8625C10.2819 54.8625 7.07378 53.4272 4.7569 51.1057C2.43509 48.7839 0.999756 45.5807 0.999756 42.0405C0.999756 38.5004 2.43509 35.2924 4.75673 32.9754C7.07361 30.6536 10.2817 29.2182 13.8221 29.2182ZM21.0855 34.7771C19.154 32.8454 16.5578 31.7664 13.8221 31.7664C10.985 31.7664 8.4177 32.9173 6.55824 34.7771C4.69913 36.6362 3.54773 39.2034 3.54773 42.0405C3.54773 44.8774 4.69896 47.4449 6.55824 49.304C8.4177 51.1633 10.985 52.3098 13.8221 52.3098C16.558 52.3098 19.154 51.2308 21.0855 49.304C22.9448 47.4449 24.0913 44.8774 24.0913 42.0405C24.0913 39.2034 22.9448 36.6362 21.0855 34.7771ZM13.8221 58.4365C17.3622 58.4365 20.5654 59.8718 22.8872 62.1936C23.6867 62.9931 24.3803 63.894 24.9487 64.8813H47.6066C48.3099 64.8813 48.8831 65.4498 48.8831 66.1577V76.3597C48.8831 77.063 48.3099 77.6361 47.6066 77.6361H38.7824C38.0791 77.6361 37.5059 77.063 37.5059 76.3597C37.5059 75.6564 38.0791 75.0832 38.7824 75.0832H46.3349V67.4294H26.0612C26.4371 68.6384 26.6442 69.9246 26.6442 71.2586C26.6442 72.5928 26.4371 73.8742 26.0612 75.0832H33.0069C33.7102 75.0832 34.2834 75.6564 34.2834 76.3597C34.2834 77.063 33.7102 77.6361 33.0069 77.6361H24.9485C24.3802 78.6186 23.6865 79.5243 22.8871 80.3238C20.5652 82.6456 17.362 84.0809 13.8219 84.0809C10.2816 84.0809 7.07344 82.6456 4.75656 80.3238C2.43509 78.0023 0.999756 74.7989 0.999756 71.2588C0.999756 67.7186 2.43509 64.5107 4.75673 62.1936C7.07361 59.872 10.2817 58.4365 13.8221 58.4365ZM21.0855 63.9953C19.2264 62.136 16.6589 60.9846 13.8221 60.9846C10.985 60.9846 8.4177 62.1358 6.55824 63.9953C4.69913 65.8544 3.54773 68.4219 3.54773 71.2588C3.54773 74.0956 4.69896 76.6631 6.55824 78.5224C8.4177 80.3815 10.985 81.5282 13.8221 81.5282C16.6589 81.5282 19.2264 80.3815 21.0855 78.5224C22.9448 76.6631 24.0913 74.0956 24.0913 71.2588C24.0913 68.4219 22.9448 65.8546 21.0855 63.9953ZM21.4949 23.0914H47.3898C48.0931 23.0914 48.6613 23.6645 48.6613 24.3678C48.6613 25.0711 48.0929 25.6443 47.3898 25.6443H13.8221C10.2817 25.6443 7.07361 24.2089 4.75673 21.8875C2.43509 19.5653 0.999756 16.3625 0.999756 12.8223C0.999756 9.28181 2.43509 6.07386 4.75673 3.7568C7.07361 1.43533 10.2817 0 13.8221 0H86.7282C87.4314 0 87.9998 0.573147 87.9998 1.27645V24.368C87.9998 25.0713 87.4312 25.6444 86.7282 25.6444H53.1603C52.457 25.6444 51.8837 25.0713 51.8837 24.368C51.8837 23.6647 52.457 23.0915 53.1603 23.0915H85.4516V2.54815H21.4949C21.9863 2.91892 22.4536 3.32333 22.8871 3.7568C25.2087 6.07386 26.644 9.28181 26.644 12.8223C26.644 16.3625 25.2087 19.5655 22.8871 21.8875C22.4536 22.3208 21.9863 22.7254 21.4949 23.0914ZM13.8266 2.54815C11.0907 2.54815 8.49467 3.61747 6.55824 5.55831C4.69913 7.41794 3.54773 9.98512 3.54773 12.8223C3.54773 15.6592 4.69896 18.2267 6.55824 20.0858C8.4177 21.9451 10.985 23.0914 13.8221 23.0914C16.553 23.0914 19.154 22.0175 21.0855 20.0858C22.9448 18.2267 24.0913 15.6592 24.0913 12.8223C24.0913 9.98512 22.9448 7.41794 21.0855 5.55831C19.2264 3.69903 16.6638 2.55274 13.8266 2.54815ZM66.941 82.8046C66.941 79.0235 66.941 43.4805 66.941 43.4805H62.2928C61.9315 43.4805 61.5174 43.3892 61.1993 43.2156C60.4721 42.811 60.1445 42.0066 60.3756 41.212C60.4768 40.8749 60.6693 40.5423 60.9586 40.2531L72.1671 29.0447C72.7258 28.4859 73.4099 28.1968 74.1178 28.1968C74.8162 28.1968 75.4952 28.4764 76.0685 29.0447L87.2772 40.2531C87.5857 40.5614 87.7926 40.8939 87.9034 41.2215C88.0431 41.6261 88.0286 42.0256 87.8745 42.3918C87.7204 42.7629 87.4507 43.0519 87.0703 43.2444C86.762 43.3938 86.3814 43.4805 85.9383 43.4805H81.295V82.8046C81.295 83.5079 80.7218 84.0811 80.0184 84.0811H68.2127C67.5094 84.0811 66.941 83.5079 66.941 82.8046ZM69.4891 43.6876V81.5282H78.7419V43.6876C78.7419 42.0066 79.8209 40.9277 81.5021 40.9277H84.3488L74.2672 30.8464C74.1324 30.7163 74.0986 30.7163 73.9686 30.8464L63.8872 40.9277H66.7293C68.4198 40.9277 69.4891 41.9875 69.4891 43.6876Z" fill="#FFD966"></path></svg>