<svg xmlns="http://www.w3.org/2000/svg" width="84" height="84" viewBox="0 0 84 84" fill="none"><g clip-path="url(#clip0_769_649)"><path d="M56.7656 52.3359C55.8597 52.3359 55.125 53.0704 55.125 53.9766V65.2969C55.125 69.8201 51.4451 73.5 46.9219 73.5H29.2084C28.3026 73.5 27.5684 74.2339 27.5677 75.1395L27.5655 78.4014L23.6496 74.4857C23.3961 73.9038 22.816 73.5 22.145 73.5H11.4844C6.96117 73.5 3.28125 69.8201 3.28125 65.2969V40.0312C3.28125 35.508 6.96117 31.8281 11.4844 31.8281H28.0547C28.9606 31.8281 29.6953 31.0936 29.6953 30.1875C29.6953 29.2814 28.9606 28.5469 28.0547 28.5469H11.4844C5.15189 28.5469 0 33.6988 0 40.0312V65.2969C0 71.6294 5.15189 76.7812 11.4844 76.7812H21.3048L28.043 83.5195C28.3569 83.8333 28.7764 84 29.2035 84C29.4146 84 29.6277 83.9591 29.8303 83.8753C30.4434 83.6217 30.8433 83.0238 30.8438 82.3605L30.8477 76.7812H46.9219C53.2544 76.7812 58.4062 71.6294 58.4062 65.2969V53.9766C58.4062 53.0704 57.6716 52.3359 56.7656 52.3359Z" fill="#9900FF"></path><path d="M60.1543 0H56.0021C42.8535 0 32.1562 10.6972 32.1562 23.8458C32.1562 36.9945 42.8535 47.6915 56.0019 47.6915H60.1542C62.2064 47.6915 64.2377 47.4308 66.2064 46.9156L72.3402 53.046C72.6541 53.3595 73.0734 53.5262 73.5003 53.5262C73.7118 53.5262 73.9251 53.4854 74.128 53.4012C74.741 53.1472 75.1406 52.5491 75.1406 51.8856V42.3936C77.7376 40.2905 79.8948 37.6338 81.4088 34.6659C83.1283 31.2951 84 27.6547 84 23.8458C84 10.6972 73.3028 0 60.1543 0ZM72.5128 40.2831C72.1015 40.593 71.8594 41.0783 71.8594 41.5936V47.9264L67.8446 43.9138C67.5322 43.6017 67.1132 43.4336 66.6847 43.4336C66.5239 43.4336 66.3615 43.4574 66.203 43.5061C64.2502 44.1062 62.2151 44.4104 60.1543 44.4104H56.0021C44.6626 44.4104 35.4375 35.1852 35.4375 23.8458C35.4375 12.5065 44.6627 3.28125 56.0021 3.28125H60.1543C71.4937 3.28125 80.7188 12.5065 80.7188 23.8458C80.7188 30.3642 77.7279 36.3554 72.5128 40.2831Z" fill="#9900FF"></path><path d="M65.4667 17.9518C65.23 14.5171 62.4613 11.7484 59.0265 11.5117C57.0794 11.378 55.2212 12.0347 53.7989 13.3625C52.3962 14.6718 51.5918 16.5228 51.5918 18.4408C51.5918 19.347 52.3265 20.0815 53.2324 20.0815C54.1384 20.0815 54.873 19.347 54.873 18.4408C54.873 17.414 55.2868 16.4623 56.0379 15.7612C56.7883 15.0608 57.7691 14.7142 58.801 14.7854C60.6103 14.9101 62.0687 16.3684 62.1933 18.1775C62.3193 20.0047 61.1205 21.6194 59.3431 22.0171C57.903 22.3393 56.8972 23.5908 56.8972 25.0603V29.0019C56.8972 29.908 57.6319 30.6425 58.5379 30.6425C59.444 30.6425 60.1785 29.908 60.1783 29.0019V25.1914C63.4842 24.3927 65.7022 21.3677 65.4667 17.9518Z" fill="#9900FF"></path><path d="M59.697 34.3318C59.3919 34.0266 58.9686 33.8511 58.5371 33.8511C58.1056 33.8511 57.6823 34.0266 57.3772 34.3318C57.072 34.6369 56.8965 35.0602 56.8965 35.4917C56.8965 35.9248 57.0722 36.3481 57.3772 36.6533C57.6823 36.9584 58.1056 37.1323 58.5371 37.1323C58.9686 37.1323 59.3919 36.9584 59.697 36.6533C60.0022 36.3465 60.1777 35.9248 60.1777 35.4917C60.1777 35.0602 60.002 34.6369 59.697 34.3318Z" fill="#9900FF"></path><path d="M45.1172 50.8594H10.5C9.59405 50.8594 8.85938 51.5939 8.85938 52.5C8.85938 53.4061 9.59405 54.1406 10.5 54.1406H45.1172C46.0233 54.1406 46.7578 53.4061 46.7578 52.5C46.7578 51.5939 46.0231 50.8594 45.1172 50.8594Z" fill="#9900FF"></path><path d="M46.2769 60.5276C45.972 60.2224 45.5487 60.0469 45.1172 60.0469C44.6857 60.0469 44.2624 60.2224 43.9573 60.5276C43.6519 60.8327 43.4766 61.256 43.4766 61.6875C43.4766 62.119 43.6521 62.5423 43.9573 62.8474C44.2624 63.1526 44.6857 63.3281 45.1172 63.3281C45.5487 63.3281 45.972 63.1526 46.2769 62.8474C46.5823 62.5423 46.7578 62.1206 46.7578 61.6875C46.7578 61.256 46.5821 60.8327 46.2769 60.5276Z" fill="#9900FF"></path><path d="M38.6641 60.0469H10.5C9.59405 60.0469 8.85938 60.7814 8.85938 61.6875C8.85938 62.5936 9.59405 63.3281 10.5 63.3281H38.6641C39.5702 63.3281 40.3047 62.5936 40.3047 61.6875C40.3047 60.7814 39.5701 60.0469 38.6641 60.0469Z" fill="#9900FF"></path><path d="M34.4531 41.6719H10.5C9.59405 41.6719 8.85938 42.4064 8.85938 43.3125C8.85938 44.2186 9.59405 44.9531 10.5 44.9531H34.4531C35.3592 44.9531 36.0938 44.2186 36.0938 43.3125C36.0938 42.4064 35.3591 41.6719 34.4531 41.6719Z" fill="#9900FF"></path></g><defs><clipPath id="clip0_769_649"><rect width="84" height="84" fill="white"></rect></clipPath></defs></svg>